<?xml version="1.0" encoding="UTF-8" standalone="no"?>
<svg xmlns="http://www.w3.org/2000/svg" viewBox="0 0 24 24"><title>E-mail</title><g id="E-mail"><g id="_Group_" data-name="&lt;Group&gt;"><path id="_Path_" data-name="&lt;Path&gt;" d="M1,3.89l7.8,6.4a1.26,1.26,0,0,0,1.39,0h0L18,3.89" style="fill:none;stroke:#2965f1;stroke-linecap:round;stroke-linejoin:round"/><path id="_Path_2" data-name="&lt;Path&gt;" d="M18.5,10.5V5A1.5,1.5,0,0,0,17,3.5H2A1.5,1.5,0,0,0,.5,5V15A1.5,1.5,0,0,0,2,16.5H13.6" style="fill:none;stroke:#2965f1;stroke-linecap:round;stroke-linejoin:round"/><circle id="_Path_3" data-name="&lt;Path&gt;" cx="18.5" cy="15.5" r="2" style="fill:none;stroke:#2965f1;stroke-linecap:round;stroke-linejoin:round"/><path id="_Path_4" data-name="&lt;Path&gt;" d="M21,19.83a5,5,0,1,1,2.5-4.33V16a1.5,1.5,0,0,1-3,0V14" style="fill:none;stroke:#2965f1;stroke-linecap:round;stroke-linejoin:round"/></g></g>
	<metadata>
		<rdf:RDF xmlns:rdf="http://www.w3.org/1999/02/22-rdf-syntax-ns#" xmlns:rdfs="http://www.w3.org/2000/01/rdf-schema#" xmlns:dc="http://purl.org/dc/elements/1.1/">
			<rdf:Description about="https://iconscout.com/legal#licenses" dc:title="message; mail; envelope; email; at; symbol" dc:description="message; mail; envelope; email; at; symbol" dc:publisher="Iconscout" dc:date="2017-02-16" dc:format="image/svg+xml" dc:language="en">
				<dc:creator>
					<rdf:Bag>
						<rdf:li>Alpár - Etele Méder</rdf:li>
					</rdf:Bag>
				</dc:creator>
			</rdf:Description>
		</rdf:RDF>
    </metadata></svg> 
